<svg width="95" height="36" viewBox="0 0 95 36" fill="none" xmlns="http://www.w3.org/2000/svg">
<path d="M15.4648 27.2055C13.189 27.2055 11.5179 26.2455 10.4516 24.3254L12.8388 22.5193C13.3958 23.5769 14.12 24.1058 15.0112 24.1058C15.6478 24.1058 16.1252 23.9105 16.4435 23.52C16.7777 23.1132 16.9448 22.381 16.9448 21.3233V10.9989H20.454V21.6162C20.454 23.162 20.0482 24.48 19.2366 25.5702C18.4408 26.6604 17.1836 27.2055 15.4648 27.2055Z" fill="white"/>
<path d="M28.8043 27.2055C27.7857 27.2055 26.7672 27.0103 25.7486 26.6198C24.7301 26.2292 23.8309 25.6597 23.0511 24.9112L25.0563 22.4461C25.6133 22.9342 26.234 23.3329 26.9184 23.642C27.6027 23.9512 28.2632 24.1058 28.8997 24.1058C30.348 24.1058 31.0721 23.5932 31.0721 22.5681C31.0721 22.0637 30.8652 21.6976 30.4514 21.4697C30.0536 21.2257 29.5125 20.9572 28.8281 20.6643L26.799 19.7856C26.0033 19.4602 25.2791 18.9476 24.6266 18.2479C23.99 17.532 23.6717 16.5964 23.6717 15.4411C23.6717 14.123 24.189 13.0084 25.2234 12.0972C26.2579 11.1697 27.5868 10.706 29.2101 10.706C30.1013 10.706 30.9925 10.885 31.8838 11.2429C32.775 11.6009 33.5548 12.1216 34.2232 12.805L32.4328 15.0749C31.9236 14.6681 31.4143 14.359 30.905 14.1475C30.3957 13.9196 29.8308 13.8057 29.2101 13.8057C28.6053 13.8057 28.1199 13.9359 27.7539 14.1963C27.4038 14.4403 27.2287 14.7902 27.2287 15.2458C27.2287 15.7339 27.4515 16.1001 27.8971 16.3441C28.3586 16.5882 28.9236 16.8486 29.592 17.1252L31.5973 17.955C32.5363 18.3456 33.2843 18.8825 33.8413 19.566C34.3983 20.2494 34.6768 21.1524 34.6768 22.2752C34.6768 23.5932 34.1596 24.7485 33.1251 25.7411C32.1066 26.7174 30.6663 27.2055 28.8043 27.2055Z" fill="white"/>
<path d="M53.5563 31.3548C51.9012 31.3548 50.5007 30.948 49.3548 30.1345C48.2249 29.3209 47.3814 28.2876 46.8244 27.0347C45.1692 26.6767 43.8404 25.7899 42.8377 24.3743C41.851 22.9586 41.3577 21.128 41.3577 18.8825C41.3577 16.2791 42.0102 14.2695 43.3152 12.8538C44.6202 11.4219 46.3231 10.706 48.4238 10.706C50.5246 10.706 52.2274 11.4219 53.5324 12.8538C54.8375 14.2858 55.49 16.2953 55.49 18.8825C55.49 21.0141 55.0364 22.7796 54.1292 24.179C53.238 25.5621 52.0444 26.4733 50.5484 26.9127C50.8986 27.4822 51.3919 27.8808 52.0285 28.1086C52.6651 28.3527 53.3096 28.4747 53.9621 28.4747C54.2964 28.4747 54.6067 28.4503 54.8932 28.4015C55.1955 28.3527 55.4581 28.2876 55.6809 28.2063L56.3016 30.8179C56.0151 30.9643 55.6332 31.0864 55.1558 31.184C54.6783 31.2979 54.1452 31.3548 53.5563 31.3548ZM48.4238 24.2766C49.4901 24.2766 50.3336 23.8047 50.9543 22.861C51.5749 21.9009 51.8853 20.5748 51.8853 18.8825C51.8853 17.3042 51.5749 16.0675 50.9543 15.1726C50.3336 14.2614 49.4901 13.8057 48.4238 13.8057C47.3575 13.8057 46.514 14.2614 45.8934 15.1726C45.2727 16.0675 44.9623 17.3042 44.9623 18.8825C44.9623 20.5748 45.2727 21.9009 45.8934 22.861C46.514 23.8047 47.3575 24.2766 48.4238 24.2766Z" fill="white"/>
<path d="M61.687 27.2055C60.3979 27.2055 59.459 26.7743 58.8701 25.9119C58.2972 25.0333 58.0107 23.8373 58.0107 22.324V14.8065H61.5199V21.8603C61.5199 22.7227 61.6393 23.3247 61.878 23.6664C62.1167 23.9919 62.4907 24.1546 63 24.1546C63.4456 24.1546 63.8196 24.0488 64.122 23.8373C64.4244 23.6258 64.7506 23.284 65.1007 22.8122V14.8065H68.6099V26.9127H65.7453L65.4827 25.2285H65.4111C64.9018 25.8306 64.3527 26.3106 63.7639 26.6686C63.191 27.0266 62.4987 27.2055 61.687 27.2055Z" fill="white"/>
<path d="M73.4407 13.0247C72.8519 13.0247 72.3665 12.8538 71.9845 12.5121C71.6025 12.1542 71.4116 11.6986 71.4116 11.1453C71.4116 10.5921 71.6025 10.1446 71.9845 9.80289C72.3665 9.46118 72.8519 9.29033 73.4407 9.29033C74.0455 9.29033 74.5309 9.46118 74.8969 9.80289C75.2789 10.1446 75.4698 10.5921 75.4698 11.1453C75.4698 11.6986 75.2789 12.1542 74.8969 12.5121C74.5309 12.8538 74.0455 13.0247 73.4407 13.0247ZM71.698 26.9127V14.8065H75.2072V26.9127H71.698Z" fill="white"/>
<path d="M77.651 26.9127V24.9844L82.6164 17.6133H78.2V14.8065H86.985V16.7103L82.0196 24.1058H87.1521V26.9127H77.651Z" fill="white"/>
<path fill-rule="evenodd" clip-rule="evenodd" d="M94.0645 26.0722V0H2.32259V31.8774C3.91233 33.5369 5.77303 34.9348 7.83359 36H84.6165C85.882 35.3458 87.0721 34.5661 88.1703 33.6774H4.64517V2.32258H91.7419V29.9784C92.6506 28.7712 93.4315 27.4625 94.0645 26.0722Z" fill="white"/>
<path d="M3.48387 27.871C5.40796 27.871 6.96774 26.3112 6.96774 24.3871C6.96774 22.463 5.40796 20.9032 3.48387 20.9032C1.55978 20.9032 0 22.463 0 24.3871C0 26.3112 1.55978 27.871 3.48387 27.871Z" fill="#3F4A43"/>
</svg>
