<svg width="115" height="36" viewBox="0 0 115 36" fill="none" xmlns="http://www.w3.org/2000/svg">
<path d="M19.8423 19.1739V26.4783L21.6683 29.2174L24.4075 30.1304L25.3205 28.3044L26.2336 22.8261V19.1739L25.3205 16.4348L24.4075 14.6087H22.5814L20.7553 15.5217L19.8423 17.3478V19.1739Z" fill="#CCC62D" stroke="#CCC62D"/>
<path d="M107 19.4118V26.4706L108.429 29.1176L110.571 30L111.286 28.2353L112 22.9412V19.4118L111.286 16.7647L110.571 15H109.143L107.714 15.8824L107 17.6471V19.4118Z" fill="#CCC62D" stroke="#CCC62D"/>
<path d="M2.62957 20.6238V31.0435H0V8.03477H7.8887V10.1384H2.62957V18.5202H7.39565V20.6238H2.62957Z" fill="#444B85"/>
<path d="M16.1141 12.8009L16.7714 12.8337L16.5742 15.6276C16.2674 15.4743 15.9716 15.3976 15.6867 15.3976C14.0214 15.3976 13.1777 17.1287 13.1558 20.5909V31.0435H10.6248V13.2939H12.1697L12.8928 16.3179C13.3311 13.9732 14.4048 12.8009 16.1141 12.8009Z" fill="#444B85"/>
<path d="M27.8752 19.7035V24.6339C27.8752 27.2416 27.4698 29.0494 26.659 30.0574C25.8702 31.0435 24.7307 31.5365 23.2406 31.5365C21.7724 31.5365 20.6329 31.0435 19.8221 30.0574C19.0333 29.0494 18.6388 27.2416 18.6388 24.6339V19.7035C18.6388 17.0958 19.0333 15.2989 19.8221 14.3129C20.6329 13.3049 21.7724 12.8009 23.2406 12.8009C24.7307 12.8009 25.8702 13.3049 26.659 14.3129C27.4698 15.2989 27.8752 17.0958 27.8752 19.7035ZM25.3442 25.0941V19.2433C25.3442 16.3069 24.654 14.8388 23.2735 14.8388C21.8491 14.8388 21.1369 16.3069 21.1369 19.2433V25.0941C21.1369 28.0304 21.8491 29.4986 23.2735 29.4986C24.654 29.4986 25.3442 28.0304 25.3442 25.0941Z" fill="#444B85"/>
<path d="M34.0845 31.0435H31.5535V13.2939H33.0984L33.7558 16.1207C34.2159 13.9075 35.3664 12.8009 37.2071 12.8009C38.3465 12.8009 39.2121 13.3049 39.8038 14.3129C40.4173 15.3209 40.7241 17.1616 40.7241 19.8349V31.0435H38.1932V18.9475C38.1932 16.2083 37.6563 14.8388 36.5826 14.8388C34.961 14.8388 34.1283 17.1835 34.0845 21.8729V31.0435Z" fill="#444B85"/>
<path d="M43.2366 15.3318V13.2939H44.9787L45.8661 8.92225H47.3782V13.2939H49.7119V15.3318H47.3782V27.6908C47.3782 28.8522 47.6959 29.4329 48.3314 29.4329C48.7477 29.4329 49.186 29.2576 49.6462 28.9069L50.1392 30.8463C49.3941 31.3064 48.6272 31.5365 47.8383 31.5365C45.8661 31.5365 44.8801 30.0793 44.8801 27.1649V15.3318H43.2366Z" fill="#444B85"/>
<path d="M83.4553 20.6238V28.9398H89.1746V31.0435H80.8258V8.03477H89.076V10.1384H83.4553V18.5202H88.583V20.6238H83.4553Z" fill="#444B85"/>
<path d="M95.1692 31.0435H92.6383V13.2939H94.1831L94.8405 16.1207C95.3007 13.9075 96.4511 12.8009 98.2918 12.8009C99.4313 12.8009 100.297 13.3049 100.889 14.3129C101.502 15.3209 101.809 17.1616 101.809 19.8349V31.0435H99.2779V18.9475C99.2779 16.2083 98.7411 14.8388 97.6673 14.8388C96.0457 14.8388 95.2131 17.1835 95.1692 21.8729V31.0435Z" fill="#444B85"/>
<path d="M108.857 31.5365C107.718 31.5365 106.83 31.0435 106.195 30.0574C105.581 29.0494 105.275 27.2416 105.275 24.6339V19.7035C105.275 17.0958 105.581 15.2989 106.195 14.3129C106.83 13.3049 107.718 12.8009 108.857 12.8009C110.435 12.8009 111.509 13.7431 112.079 15.6276V6.71999H114.478V31.0435H112.933L112.144 27.625C111.706 30.2327 110.61 31.5365 108.857 31.5365ZM111.618 26.869C111.859 25.7296 111.98 24.1628 111.98 22.1687C111.98 20.1746 111.848 18.6188 111.586 17.5012C111.344 16.3617 111.049 15.6386 110.698 15.3318C110.369 15.0031 109.931 14.8388 109.383 14.8388C108.266 14.8388 107.707 16.1974 107.707 18.9146V25.4228C107.707 26.9348 107.86 27.9976 108.167 28.6111C108.474 29.2028 108.901 29.4986 109.449 29.4986C109.997 29.4986 110.435 29.3452 110.764 29.0384C111.092 28.7097 111.377 27.9866 111.618 26.869Z" fill="#444B85"/>
<path d="M58.9792 18.1991H53.8369L54.8654 22.6259H60.0076L60.5218 23.1178L62.0645 24.5934L64.1214 25.5771H66.1783L68.2352 25.0852L69.7779 24.1015L70.8063 22.6259H75.9486L76.4628 18.1991H71.3206H70.2921L69.7779 17.2154L68.7494 16.2316L67.2068 15.2479L65.1499 14.756L63.093 15.2479L61.5503 16.2316L60.0076 18.1991H58.9792Z" fill="#FFF738"/>
<path d="M58.9792 18.1991H53.8369L54.8654 22.6259H60.0076L60.5218 23.1178L62.0645 24.5934L64.1214 25.5771H66.1783L68.2352 25.0852L69.7779 24.1015L70.8063 22.6259H75.9486L76.4628 18.1991H71.3206H70.2921L69.7779 17.2154L68.7494 16.2316L67.2068 15.2479L65.1499 14.756L63.093 15.2479L61.5503 16.2316L60.0076 18.1991H58.9792Z" fill="black" fill-opacity="0.2"/>
<path d="M63.2952 18.069H64.0474V21.1166C64.0474 21.5326 63.9171 21.8629 63.6564 22.1077C63.3977 22.3524 63.0554 22.4748 62.6296 22.4748C62.1759 22.4748 61.8256 22.3604 61.5789 22.1315C61.3321 21.9027 61.2087 21.5843 61.2087 21.1763H61.961C61.961 21.4072 62.0177 21.5813 62.1311 21.6987C62.2465 21.8141 62.4127 21.8718 62.6296 21.8718C62.8326 21.8718 62.9937 21.8052 63.1131 21.6718C63.2345 21.5365 63.2952 21.3505 63.2952 21.1137V18.069Z" fill="#444B85"/>
<path d="M67.1846 21.2957C67.1846 21.1047 67.117 20.9574 66.9817 20.854C66.8483 20.7505 66.6066 20.646 66.2563 20.5405C65.9061 20.4351 65.6275 20.3177 65.4205 20.1883C65.0245 19.9396 64.8265 19.6152 64.8265 19.2152C64.8265 18.865 64.9688 18.5764 65.2534 18.3496C65.5399 18.1227 65.9111 18.0093 66.3668 18.0093C66.6692 18.0093 66.9389 18.065 67.1757 18.1765C67.4125 18.2879 67.5986 18.4471 67.7339 18.654C67.8692 18.859 67.9369 19.0869 67.9369 19.3376H67.1846C67.1846 19.1107 67.113 18.9336 66.9697 18.8063C66.8284 18.6769 66.6255 18.6123 66.3608 18.6123C66.114 18.6123 65.922 18.665 65.7847 18.7705C65.6494 18.8759 65.5817 19.0232 65.5817 19.2122C65.5817 19.3714 65.6553 19.5048 65.8026 19.6122C65.9499 19.7177 66.1926 19.8212 66.5309 19.9227C66.8692 20.0222 67.1409 20.1366 67.3458 20.2659C67.5508 20.3933 67.701 20.5405 67.7966 20.7077C67.8921 20.8729 67.9398 21.0669 67.9398 21.2898C67.9398 21.6519 67.8005 21.9405 67.5219 22.1554C67.2453 22.3683 66.8692 22.4748 66.3936 22.4748C66.0792 22.4748 65.7897 22.4171 65.525 22.3017C65.2623 22.1843 65.0574 22.0231 64.9101 21.8181C64.7648 21.6131 64.6922 21.3743 64.6922 21.1017H65.4474C65.4474 21.3485 65.529 21.5395 65.6922 21.6748C65.8553 21.8102 66.0892 21.8778 66.3936 21.8778C66.6563 21.8778 66.8533 21.8251 66.9846 21.7196C67.118 21.6121 67.1846 21.4709 67.1846 21.2957Z" fill="#444B85"/>
<path d="M72.7616 36H57.5329C56.8735 36.0016 56.2372 35.7647 55.748 35.3356C55.2588 34.9065 54.9518 34.3159 54.887 33.679L52.2469 8.7133C52.2395 8.64199 52.2476 8.56998 52.2708 8.50193C52.2939 8.43387 52.3316 8.3713 52.3812 8.31828C52.4309 8.26525 52.4915 8.22295 52.5591 8.19413C52.6267 8.1653 52.6998 8.15059 52.7736 8.15095H77.5262C77.6 8.15059 77.6731 8.1653 77.7407 8.19413C77.8083 8.22295 77.8689 8.26525 77.9186 8.31828C77.9682 8.3713 78.0059 8.43387 78.029 8.50193C78.0522 8.56998 78.0603 8.64199 78.0529 8.7133L75.4075 33.6795C75.3426 34.3163 75.0356 34.9068 74.5464 35.3358C74.0572 35.7648 73.4209 36.0016 72.7616 36ZM53.3547 9.17238L55.9358 33.5752C55.9748 33.9598 56.16 34.3165 56.4553 34.5758C56.7506 34.835 57.1347 34.9783 57.5329 34.9775H72.7616C73.1598 34.9784 73.544 34.8353 73.8394 34.5761C74.1348 34.317 74.3201 33.9603 74.3593 33.5758L76.9404 9.17238H53.3547Z" fill="#444B85"/>
<path d="M78.2545 8.83017H52.0453C51.7398 8.83165 51.4461 8.72316 51.2286 8.52849C51.0112 8.33383 50.8879 8.06891 50.8857 7.79189V4.4345C50.8879 4.15748 51.0112 3.89256 51.2286 3.6979C51.4461 3.50324 51.7398 3.39475 52.0453 3.39623H78.2545C78.56 3.39475 78.8537 3.50324 79.0711 3.6979C79.2885 3.89256 79.4119 4.15748 79.414 4.4345V7.79189C79.4119 8.06891 79.2885 8.33383 79.0711 8.52849C78.8537 8.72316 78.56 8.83165 78.2545 8.83017ZM52.0453 4.32742C52.0121 4.32589 51.9796 4.33627 51.9548 4.35631C51.93 4.37635 51.9149 4.40445 51.9128 4.4345V7.79189C51.9149 7.82195 51.93 7.85004 51.9548 7.87009C51.9796 7.89013 52.0121 7.90051 52.0453 7.89898H78.2545C78.2876 7.90051 78.3202 7.89013 78.345 7.87009C78.3698 7.85004 78.3848 7.82195 78.387 7.79189V4.4345C78.3848 4.40445 78.3698 4.37635 78.345 4.35631C78.3202 4.33627 78.2876 4.32589 78.2545 4.32742H52.0453Z" fill="#444B85"/>
<path d="M76.1841 4.07547H54.1133C54.0324 4.07541 53.9526 4.05582 53.8806 4.01833C53.8086 3.98083 53.7464 3.9265 53.6991 3.85981C53.6519 3.79311 53.6208 3.71596 53.6086 3.6347C53.5964 3.55344 53.6034 3.4704 53.629 3.39242L54.3953 1.06039C54.4961 0.751866 54.69 0.483413 54.9494 0.293087C55.2088 0.102762 55.5206 0.00022122 55.8406 7.71428e-07H74.4567C74.7771 -0.000324093 75.0895 0.101964 75.3494 0.292328C75.6094 0.482692 75.8036 0.751445 75.9046 1.06039L76.6709 3.39242C76.6966 3.47061 76.7035 3.55388 76.6912 3.63534C76.6789 3.7168 76.6476 3.79411 76.6 3.86086C76.5524 3.92762 76.4899 3.9819 76.4176 4.01922C76.3452 4.05654 76.2652 4.07582 76.1841 4.07547ZM54.8214 3.0374H75.4754L74.9354 1.38842C74.902 1.28631 74.8378 1.19749 74.7518 1.1346C74.6659 1.0717 74.5626 1.03793 74.4567 1.03807H55.8406C55.7347 1.03796 55.6313 1.07181 55.5454 1.13481C55.4594 1.1978 55.3952 1.28673 55.3619 1.38894L54.8214 3.0374Z" fill="#444B85"/>
<path d="M65.1512 26.4906C64.0591 26.488 62.9879 26.1878 62.0505 25.6215C61.1131 25.0552 60.3442 24.2439 59.8248 23.273H54.598C54.4714 23.2728 54.3494 23.2252 54.2556 23.1394C54.1618 23.0535 54.1028 22.9355 54.0902 22.8083L53.6053 18.0485C53.5982 17.9765 53.6061 17.9037 53.6285 17.835C53.651 17.7663 53.6875 17.7031 53.7356 17.6495C53.7838 17.596 53.8426 17.5533 53.9082 17.5241C53.9737 17.495 54.0446 17.4802 54.1162 17.4805H59.8294C60.3465 16.5083 61.1145 15.6959 62.052 15.1296C62.9894 14.5632 64.0611 14.2642 65.1533 14.2642C66.2454 14.2642 67.3172 14.5632 68.2546 15.1296C69.192 15.6959 69.9601 16.5083 70.4772 17.4805H76.1862C76.2576 17.4805 76.3282 17.4957 76.3935 17.5249C76.4588 17.5542 76.5172 17.597 76.5651 17.6505C76.613 17.704 76.6493 17.7671 76.6716 17.8356C76.6939 17.9042 76.7017 17.9767 76.6946 18.0485L76.2123 22.8083C76.1996 22.9355 76.1407 23.0535 76.0469 23.1394C75.9531 23.2252 75.831 23.2728 75.7045 23.273H70.4777C69.9583 24.2439 69.1894 25.0552 68.252 25.6215C67.3146 26.1878 66.2433 26.488 65.1512 26.4906ZM55.0593 22.2404H60.1395C60.2361 22.2409 60.3306 22.2691 60.412 22.3218C60.4934 22.3744 60.5583 22.4493 60.5993 22.5377C61.0051 23.4107 61.6485 24.1488 62.4541 24.6658C63.2597 25.1828 64.1943 25.4574 65.1487 25.4574C66.103 25.4574 67.0376 25.1828 67.8433 24.6658C68.6489 24.1488 69.2922 23.4107 69.6981 22.5377C69.7392 22.4489 69.8046 22.3738 69.8864 22.3211C69.9683 22.2684 70.0634 22.2404 70.1604 22.2404H75.2406L75.6197 18.5116H70.163C70.066 18.5116 69.9711 18.4838 69.8892 18.4313C69.8073 18.3788 69.7419 18.3039 69.7006 18.2152C69.2954 17.3424 68.6525 16.6043 67.8473 16.0872C67.0421 15.5701 66.1078 15.2955 65.1538 15.2955C64.1998 15.2955 63.2655 15.5701 62.4603 16.0872C61.655 16.6043 61.0122 17.3424 60.607 18.2152C60.5658 18.3043 60.5004 18.3796 60.4185 18.4323C60.3365 18.4851 60.2413 18.5131 60.1441 18.5131H54.6782L55.0593 22.2404Z" fill="#444B85"/>
</svg>
