<svg id="_x33_0" enable-background="new 0 0 57.21 58" height="512" viewBox="0 0 57.21 58" width="512" xmlns="http://www.w3.org/2000/svg"><g><path d="m45.21 56h8v2h-8z"/><path d="m47.21 26.847c0-.467-.38-.847-.847-.847h-.589c-.415 0-.767.298-.835.708l-3.718 22.306c-.008.045-.012.092-.012.139 0 .467.38.847.847.847h.589c.415 0 .767-.298.835-.708l3.718-22.306c.008-.045.012-.092.012-.139z"/><path d="m52.99 54-2.884-14.418c-.321-1.6-1.127-3.072-2.279-4.209l-.506 3.038c.646.738 1.103 1.638 1.284 2.604l2.434 12.985z"/><path d="m31.21 32c0-1.103-.897-2-2-2v4c1.103 0 2-.897 2-2z"/><path d="m27.21 34v-8h-4.929c-3.283 0-6.422-.888-9.174-2.518l-4.599 1.725c-.777.29-1.298 1.043-1.298 1.872v6.921c0 5.514 4.486 10 10 10s10-4.486 10-10zm-8-3c0-1.654 1.346-3 3-3s3 1.346 3 3v1h-2v-1c0-.551-.448-1-1-1s-1 .449-1 1v1h-2zm-7-1c-.552 0-1 .449-1 1v1h-2v-1c0-1.654 1.346-3 3-3s3 1.346 3 3v1h-2v-1c0-.551-.448-1-1-1zm2.515 9.06-.515-2.06h6l-.515 2.06c-.285 1.14-1.31 1.94-2.485 1.94s-2.2-.8-2.485-1.94z"/><path d="m15.21 55.523v2.477h2.477c-.956-.685-1.792-1.521-2.477-2.477z"/><path d="m3.21 32c0 1.103.897 2 2 2v-4c-1.103 0-2 .897-2 2z"/><path d="m11.087 22.103c-.549-.435-1.082-.893-1.584-1.396l1.414-1.414c3.035 3.035 7.071 4.707 11.364 4.707h4.797c-.375-1.397-1.517-2.51-2.986-2.804l-1.078-.215.393-1.961 1.078.215c2.738.548 4.726 2.973 4.726 5.765v1 2c.203 0 .398.031.593.06l.885-2.654c.347-1.039.522-2.123.522-3.221-.001-5.616-4.569-10.185-10.186-10.185h-17.947l1.546 2.318-4.624 2.774 3.732 2.799-2.901 2.901c1.862 1.264 3.241 3.102 3.936 5.252.148-.016.291-.044.443-.044v-.921c0-1.658 1.043-3.164 2.596-3.746z"/><path d="m29.21 54h3.816c-.414-1.161-1.514-2-2.816-2h-1z"/><path d="m55.21 0h-32c-1.103 0-2 .897-2 2v8.009c4.382.066 8.201 2.456 10.295 5.991h2.705v-4c0-.552.448-1 1-1h2c.552 0 1 .448 1 1v4h.847l.976 5.849c.029.175.326.174.355 0l.975-5.849h.847v-8c0-.552.448-1 1-1h2c.552 0 1 .448 1 1v8h4v-12c0-.552.448-1 1-1h2c.552 0 1 .448 1 1v12h1c1.103 0 2-.897 2-2v-12c0-1.103-.897-2-2-2zm-28 6h-2v-2h2zm4 0h-2v-2h2zm4 0h-2v-2h2z"/><path d="m27.21 52h-3.618l-2.081-4.161c-.567-1.134-1.706-1.839-2.975-1.839-1.834 0-3.326 1.492-3.326 3.326 0 4.783 3.891 8.674 8.674 8.674h.326 1v-2c0-1.103.897-2 2-2z"/><path d="m27.21 56v2h1 11.001l-.001-2z"/></g></svg>