<svg id="_x33_0" enable-background="new 0 0 58 58" height="512" viewBox="0 0 58 58" width="512" xmlns="http://www.w3.org/2000/svg"><g><path d="m38.248 38c-.505 0-.985.218-1.318.599l-1.268 1.449 3.002 2.401.986-1.315c.226-.302.35-.675.35-1.051v-.331c0-.966-.786-1.752-1.752-1.752z"/><path d="m43.295 26c-.391 0-.657.188-.758.468l-3.442 9.637c.502.117.962.336 1.365.633l3.498-9.796c.028-.077.042-.156.042-.237 0-.389-.316-.705-.705-.705z"/><path d="m47.272 19.787.948-3.787h3.454l-.537-1.88c-.525-1.837-2.226-3.12-4.137-3.12s-3.612 1.283-4.137 3.12l-.537 1.88h3.454l.947 3.788c.063.248.483.249.545-.001z"/><path d="m18 52.5c0-.827-.673-1.5-1.5-1.5l-.5.004v2.996h.5c.827 0 1.5-.673 1.5-1.5z"/><path d="m14 49.019 2.492-.019c1.938 0 3.508 1.57 3.508 3.5s-1.57 3.5-3.5 3.5h-2.5v2h7v-11h-7z"/><path d="m30.175 46.318-.729-.486c-1.76-1.173-3.802-1.801-5.914-1.827l-1.083 1.624c.339.359.551.84.551 1.371v11h2.522l-.175-.438c-.797-1.993-1.026-4.167-.664-6.285l.259-1.517 2.357 1.57c.657.439 1.421.67 2.21.67 1.247 0 2.438-.596 3.187-1.593l4.767-6.356-3.119-2.495z"/><circle cx="47" cy="6" r="2"/><path d="m19 42c-1.197 0-2.356-.156-3.472-.422l-.424 1.274 1.431 2.148h3.93l1.432-2.148-.361-1.083c-.826.141-1.67.231-2.536.231z"/><path d="m13.218 42.184.4-1.199c-5.617-2.17-9.618-7.612-9.618-13.985v-4.117c0-2.155 1.374-4.062 3.419-4.743l3.758-1.253c-.935-1.003-1.672-2.208-2.126-3.571l1.896-.633c1.062 3.18 4.026 5.317 7.377 5.317h13.567c-.416-1.892-1.987-3.379-3.977-3.628l-3.039-.38.248-1.984 3.039.38c3.328.416 5.838 3.258 5.838 6.612v1 7c0 6.707-4.425 12.398-10.509 14.312l.231.692c2.146.054 4.228.637 6.083 1.7l5.62-6.423c.408-.466.926-.802 1.492-1.018l1.036-2.901c.028-.321.047-.644.047-.967v-1.395c0-2.61-.164-5.249-.488-7.845l-.396-3.162c-.085-.681-.221-1.355-.381-2.02-1.529-.136-2.735-1.409-2.735-2.973v-3.144c-3.418-4.922-9-7.856-15-7.856-9.188 0-16.977 6.876-18.116 15.993l-.396 3.162c-.324 2.596-.488 5.235-.488 7.845 0 2.817 1.346 5.509 3.601 7.2l.399.3v2.401c0 2.06 1.233 3.913 3.07 4.748.843-1.303 2.123-2.316 3.683-2.762z"/><path d="m57 0h-20c-.552 0-1 .448-1 1v14c0 .552.448 1 1 1h3.245l.694-2.429c.567-1.982 2.071-3.517 3.941-4.192-1.125-.708-1.88-1.953-1.88-3.379 0-2.206 1.794-4 4-4s4 1.794 4 4c0 1.426-.755 2.671-1.881 3.379 1.87.675 3.375 2.21 3.941 4.192l.695 2.429h3.245c.552 0 1-.448 1-1v-14c0-.552-.448-1-1-1z"/><path d="m14 51.019-2 .015v-4.034c0-1.103.897-2 2-2h.132l-.559-.838-2.271.649c-1.945.555-3.302 2.355-3.302 4.377 0 2.654 2.158 4.812 4.812 4.812h1.188z"/><path d="m32 20h-13.676c-1.955 0-3.801-.584-5.355-1.603l-4.917 1.639c-1.228.41-2.052 1.554-2.052 2.847v4.117c0 7.168 5.832 13 13 13s13-5.832 13-13zm-19.971 5.292c-.868.283-1.671.764-2.322 1.415l-1.414-1.414c1.457-1.457 3.475-2.293 5.535-2.293h.172c1.105 0 2 .895 2 2s-.895 2-2 2c-1.004 0-1.828-.743-1.971-1.708zm10.699 8.798c-.428 1.71-1.965 2.91-3.728 2.91s-3.3-1.2-3.728-2.91l-.272-1.09h8zm3.272-7.09c-1.004 0-1.828-.743-1.971-1.708-.868.283-1.671.764-2.322 1.415l-1.414-1.414c1.457-1.457 3.475-2.293 5.535-2.293h.172c1.105 0 2 .895 2 2s-.895 2-2 2z"/><path d="m48 26h2v2h-2z"/><path d="m52 26h2v2h-2z"/><path d="m56 26h2v2h-2z"/><path d="m46 34h4v2h-4z"/><path d="m52 34h6v2h-6z"/><path d="m46 38h12v2h-12z"/><path d="m46 42h12v2h-12z"/><path d="m46 46h8v2h-8z"/></g></svg>