<svg id="Outline" height="512" viewBox="0 0 512 512" width="512" xmlns="http://www.w3.org/2000/svg"><path d="m271.638 344.407-.044-.6a8 8 0 0 0 -13.636-5.077l-6.106 6.106a28.109 28.109 0 0 1 -39.7 0l-4.982-4.984a44.126 44.126 0 0 0 -62.332 0l-4.982 4.982a28.108 28.108 0 0 1 -39.7 0 44.191 44.191 0 0 0 -46.424-10.1 8 8 0 0 0 -5.2 6.765c-.36 3.814-.532 7.248-.532 10.501a112 112 0 0 0 224 0c0-2.657-.184-5.166-.362-7.593zm-111.638 103.593a96.108 96.108 0 0 1 -96-96c0-1.147.026-2.329.079-3.557a28.092 28.092 0 0 1 24.755 7.705 44.124 44.124 0 0 0 62.332 0l4.982-4.982a28.109 28.109 0 0 1 39.7 0l4.982 4.984a44.154 44.154 0 0 0 54.617 6.159 96.143 96.143 0 0 1 -95.447 85.691z"/><path d="m304 352a142.449 142.449 0 0 0 -31.371-89.727 144.865 144.865 0 0 0 -72.629-48.629v-23.02a24 24 0 0 0 -8-46.624h-64a24 24 0 0 0 -8 46.624v23.02a144.865 144.865 0 0 0 -72.629 48.629 142.449 142.449 0 0 0 -31.371 89.727c0 79.4 64.6 144 144 144s144-64.6 144-144zm-176-192h64a8 8 0 0 1 0 16h-64a8 8 0 0 1 0-16zm32 320a128.145 128.145 0 0 1 -128-128 126.6 126.6 0 0 1 27.878-79.748 128.616 128.616 0 0 1 70-44.678 8 8 0 0 0 6.122-7.774v-27.8h48v27.8a8 8 0 0 0 6.124 7.777 128.616 128.616 0 0 1 70 44.678 126.6 126.6 0 0 1 27.876 79.745 128.145 128.145 0 0 1 -128 128z"/><path d="m96 384h16v16h-16z"/><path d="m144 416h16v16h-16z"/><path d="m168 368h16v16h-16z"/><path d="m200 392h16v16h-16z"/><path d="m432 16h-352a40.045 40.045 0 0 0 -40 40v168h16v-168a24.028 24.028 0 0 1 24-24h352a24.028 24.028 0 0 1 24 24v400a24.028 24.028 0 0 1 -24 24h-176v16h176a40.045 40.045 0 0 0 40-40v-400a40.045 40.045 0 0 0 -40-40z"/><path d="m328 272h104v16h-104z"/><path d="m328 304h104v16h-104z"/><path d="m328 336h88v16h-88z"/><path d="m384 240h48v16h-48z"/><path d="m352 240h16v16h-16z"/><path d="m272 112v19.056l-27.578 13.789a8 8 0 0 0 -4.422 7.155v40a8 8 0 0 0 4.422 7.155l27.578 13.789v19.056h16v-19.056l24-12 28.422 14.211a8 8 0 0 0 7.156 0l30.31-15.155h22.112v-16h-16v-27.056l25.888-12.944h22.112v-16h-16v-32a8 8 0 0 0 -4.422-7.155l-27.578-13.789v-19.056h-16v19.056l-25.888 12.944h-22.112v16h16v27.056l-24 12-24-12v-19.056zm96 75.056-24 12-24-12v-30.112l24-12 24 12zm-16-86.112 24-12 24 12v30.112l-24 12-24-12zm-48 86.112-24 12-24-12v-30.112l24-12 24 12z"/><path d="m320 456h112v-16h-16v-40h-16v40h-16v-56h-16v56h-16v-24h-16v24h-16z"/><path d="m80 56v80h16v-16h88v-16h-88v-16h120v-16h-120v-16z"/><path d="m200 104h16v16h-16z"/><path d="m232 72h16v16h-16z"/><path d="m130.459 260.628-4.918-15.228a111.686 111.686 0 0 0 -53.825 37.67l12.605 9.854a95.749 95.749 0 0 1 46.138-32.296z"/><path d="m74.81 307.7-14.189-7.4a111.692 111.692 0 0 0 -7.221 17.241l15.226 4.918a95.539 95.539 0 0 1 6.184-14.759z"/></svg>